<svg width="960" height="400" viewBox="0 0 960 400" fill="none" xmlns="http://www.w3.org/2000/svg">
<g clip-path="url(#clip0_2618_220)">
<rect width="960" height="320" rx="24" fill="#EF4D1A"/>
<path d="M428.5 248C191.682 201.446 20 101 101.041 -63.5461C198.041 -119.046 611.541 -100.546 923.541 -85.5461C1235.54 -70.5461 1064.13 88.4177 1025 178C987 265 662.5 294 428.5 248Z" fill="white"/>
<path d="M673.995 150.641L674.466 123.718C678.196 123.561 681.093 122.639 683.158 120.951C685.222 119.263 687.093 116.782 688.77 113.509C690.555 110.231 692.736 106.243 695.314 101.544C699.282 94.3312 703.002 88.8371 706.473 85.0615C709.944 81.2859 713.358 78.6871 716.715 77.2651C720.072 75.8431 723.562 75.056 727.185 74.9039C732.194 74.6937 736.882 75.7246 741.247 77.9969C745.613 80.2691 749.424 83.312 752.68 87.1254C756.043 90.9344 758.675 95.1477 760.577 99.7654C762.586 104.379 763.686 108.976 763.879 113.559C764.143 119.847 763.205 125.491 761.066 130.492C759.034 135.488 755.838 139.466 751.478 142.425C747.119 145.383 741.742 146.997 735.347 147.265C730.445 147.471 725.083 146.895 719.261 145.538C713.545 144.177 706.968 141.357 699.528 137.078L708.014 114.142C712.62 117.045 716.972 118.998 721.071 120C725.277 120.998 728.765 121.439 731.536 121.322C733.454 121.242 734.935 120.913 735.978 120.335C737.128 119.753 737.898 119.027 738.289 118.156C738.782 117.175 739.003 116.098 738.954 114.926C738.856 112.581 738.233 110.472 737.087 108.598C736.047 106.72 734.704 105.229 733.056 104.123C731.408 103.018 729.572 102.508 727.547 102.593C725.735 102.669 724.003 103.382 722.352 104.733C720.7 106.083 718.925 108.293 717.025 111.362C715.232 114.427 713.06 118.628 710.508 123.966C708.542 127.999 706.612 131.603 704.717 134.779C702.928 137.95 700.748 140.711 698.178 143.06C695.71 145.299 692.529 147.088 688.635 148.425C684.843 149.652 679.963 150.391 673.995 150.641Z" fill="#EF4D1A"/>
<path d="M604.7 189.742L595.028 165.326C602.514 163.09 608.759 160.533 613.762 157.653C618.766 154.774 622.697 151.78 625.556 148.671C628.517 145.451 630.572 142.268 631.721 139.124C632.87 135.98 633.387 133.022 633.27 130.251C633.087 125.882 631.704 120.922 629.123 115.372C626.541 109.822 623.195 103.877 619.086 97.5373L643.194 84.3547C645.136 87.3692 646.922 90.4971 648.552 93.7382C650.29 96.9749 651.867 100.218 653.285 103.468C654.702 106.718 655.958 109.922 657.051 113.079C658.615 117.284 660.712 120.185 663.342 121.783C665.966 123.274 669.677 123.919 674.472 123.718C679.588 123.503 683.318 124.627 685.664 127.091C688.009 129.555 689.258 132.599 689.41 136.222C689.58 140.272 688.387 143.632 685.83 146.301C683.273 148.971 679.33 150.417 674.001 150.641C670.165 150.802 666.676 150.361 663.537 149.319C660.499 148.165 657.969 146.403 655.948 144.032C654.034 141.657 652.736 138.722 652.055 135.228L659.913 127.852C660.155 133.607 659.335 139.513 657.454 145.57C655.573 151.628 652.453 157.417 648.094 162.938C643.74 168.566 637.975 173.665 630.801 178.237C623.737 182.911 615.037 186.746 604.7 189.742Z" fill="#EF4D1A"/>
<path d="M497.588 158.046L498.059 131.123C504.773 130.841 511.314 130.246 517.681 129.338C524.049 128.43 530.081 127.163 535.778 125.536C541.581 123.904 546.943 121.918 551.862 119.576C556.888 117.23 561.47 114.475 565.608 111.312C562.042 110.288 558.325 109.483 554.457 108.898C550.584 108.206 546.561 107.735 542.387 107.483C538.319 107.226 533.994 107.194 529.411 107.387C527.706 107.458 525.524 107.603 522.864 107.822C520.204 108.04 517.495 108.367 514.738 108.803C512.082 109.128 509.804 109.544 507.904 110.051L503.206 82.0635C506.368 81.0767 510.18 80.3295 514.642 79.8219C519.1 79.2077 523.088 78.8268 526.605 78.6792C532.466 78.4332 537.982 78.8422 543.151 79.9064C548.316 80.864 553.121 82.1569 557.566 83.7852C562.012 85.4136 566.138 87.0553 569.944 88.7105C573.856 90.3612 577.491 91.7566 580.849 92.8968C584.308 93.926 587.53 94.3779 590.514 94.2527L597.068 93.9776L601.445 118.135C597.307 118.736 593.413 120.074 589.763 122.149C586.109 124.117 582.369 126.569 578.542 129.506C574.817 132.331 570.617 135.283 565.942 138.362C561.267 141.441 555.786 144.393 549.499 147.219C543.319 150.041 535.999 152.43 527.541 154.387C519.082 156.343 509.098 157.563 497.588 158.046Z" fill="#EF4D1A"/>
<path d="M432.02 160.798L432.492 133.875C436.115 133.723 439.086 133.278 441.404 132.54C443.823 131.691 445.732 130.116 447.13 127.816C448.524 125.408 449.607 121.947 450.378 117.43C451.251 112.803 452.006 106.632 452.643 98.9189L479.195 101.968C479.151 103.465 479.009 105.179 478.77 107.11C478.637 109.038 478.509 111.071 478.386 113.212C478.262 115.352 478.243 117.435 478.328 119.46C478.444 122.231 479.128 124.551 480.381 126.42C481.63 128.182 483.659 129.485 486.47 130.328C489.384 131.06 493.238 131.325 498.034 131.124C503.15 130.909 506.88 132.033 509.225 134.497C511.571 136.961 512.819 140.005 512.972 143.628C513.142 147.678 511.948 151.038 509.391 153.707C506.834 156.377 502.891 157.823 497.563 158.047C489.889 158.369 483.51 157.729 478.425 156.128C473.447 154.522 469.598 151.854 466.88 148.125C464.267 144.391 462.516 139.554 461.626 133.613L471.058 133.217C469.39 139.265 467.085 144.113 464.142 147.76C461.305 151.402 458.058 154.154 454.4 156.015C450.843 157.766 447.102 158.937 443.177 159.529C439.363 160.223 435.644 160.646 432.02 160.798ZM462.779 199.222C459.155 199.374 456.011 198.225 453.346 195.775C450.685 193.431 449.279 190.447 449.127 186.824C448.97 183.094 450.115 179.843 452.561 177.071C455.011 174.406 458.048 172.997 461.672 172.845C465.402 172.689 468.546 173.838 471.105 176.293C473.668 178.854 475.027 182 475.184 185.73C475.336 189.353 474.238 192.442 471.89 194.996C469.546 197.657 466.509 199.066 462.779 199.222Z" fill="#EF4D1A"/>
<path d="M441.177 58.6843L440.667 46.535L479.19 33.3879L479.706 45.697L441.177 58.6843ZM441.962 77.3879L441.452 65.2385L479.975 52.0914L480.491 64.4006L441.962 77.3879Z" fill="#EF4D1A"/>
<path d="M432.06 160.797C421.19 161.253 412.726 160.54 406.668 158.66C400.717 156.774 396.425 153.698 393.79 149.431C391.262 145.16 389.695 139.621 389.089 132.814L381.527 40.4099L409.023 39.2557L415.981 117.273C416.52 122.481 417.32 126.291 418.382 128.702C419.551 131.108 421.27 132.638 423.539 133.29C425.804 133.835 428.802 134.03 432.532 133.873C437.647 133.658 441.378 134.783 443.723 137.247C446.068 139.71 447.317 142.754 447.469 146.378C447.639 150.427 446.446 153.787 443.889 156.457C441.332 159.126 437.389 160.573 432.06 160.797Z" fill="#EF4D1A"/>
<path d="M389 283.5C404.5 281 427.5 248.5 403.5 237.5L457 246.5C456 261 428.5 289 389 283.5Z" fill="white"/>
</g>
<g filter="url(#filter0_d_2618_220)">
<path d="M45.4451 234.168C40.3888 215.297 37.8607 205.862 39.6019 197.671C41.1334 190.465 44.9068 183.93 50.3811 179.001C56.6045 173.397 66.0396 170.869 84.9099 165.813L230.784 126.726C249.654 121.67 259.089 119.141 267.28 120.883C274.486 122.414 281.022 126.187 285.951 131.662C291.554 137.885 294.082 147.32 299.139 166.191L321.231 248.641C326.287 267.511 328.816 276.946 327.074 285.138C325.543 292.343 321.769 298.879 316.295 303.808C310.072 309.412 300.637 311.94 281.766 316.996L135.893 356.083C117.022 361.139 107.587 363.667 99.3958 361.926C92.1903 360.394 85.6547 356.621 80.7256 351.147C75.122 344.923 72.5939 335.488 67.5376 316.618L45.4451 234.168Z" fill="url(#paint0_linear_2618_220)"/>
<path d="M54.6114 228.737C50.7449 214.307 48.8116 207.092 50.1431 200.828C51.3143 195.318 54.1998 190.32 58.386 186.551C63.1451 182.266 70.3602 180.333 84.7904 176.466L236.214 135.892C250.644 132.026 257.859 130.092 264.123 131.424C269.633 132.595 274.631 135.481 278.4 139.667C282.685 144.426 284.619 151.641 288.485 166.071L312.065 254.071C315.931 268.501 317.864 275.716 316.533 281.98C315.362 287.491 312.476 292.488 308.29 296.258C303.531 300.543 296.316 302.476 281.886 306.343L130.462 346.916C116.032 350.783 108.817 352.716 102.553 351.385C97.043 350.214 92.0452 347.328 88.2759 343.142C83.9908 338.383 82.0575 331.168 78.191 316.737L54.6114 228.737Z" fill="#11141A"/>
<path d="M167.104 261.224C167.104 264.053 167.661 266.855 168.744 269.469C169.827 272.083 171.413 274.458 173.414 276.459C175.415 278.459 177.79 280.046 180.404 281.129C183.018 282.212 185.819 282.769 188.649 282.769C191.478 282.769 194.28 282.212 196.894 281.129C199.508 280.046 201.883 278.459 203.883 276.459C205.884 274.458 207.471 272.083 208.554 269.469C209.636 266.855 210.194 264.053 210.194 261.224L202.002 261.224C202.002 262.978 201.657 264.714 200.986 266.334C200.315 267.954 199.331 269.427 198.091 270.667C196.851 271.906 195.379 272.89 193.759 273.561C192.139 274.232 190.402 274.578 188.649 274.578C186.895 274.578 185.159 274.232 183.539 273.561C181.918 272.89 180.446 271.906 179.206 270.667C177.966 269.427 176.983 267.954 176.312 266.334C175.641 264.714 175.295 262.978 175.295 261.224H167.104Z" fill="white"/>
<path d="M264.37 218.775L237.994 243.802C236.766 244.967 236.274 246.71 236.712 248.346C237.15 249.981 238.448 251.245 240.094 251.64L275.45 260.125L272.731 249.977L250.518 244.646L267.089 228.923L264.37 218.775Z" fill="white"/>
<path d="M101.848 262.323L137.204 270.808C138.85 271.203 140.148 272.467 140.586 274.103C141.024 275.738 140.532 277.481 139.304 278.647L112.928 303.673L110.208 293.525L126.779 277.802L104.567 272.471L101.848 262.323Z" fill="white"/>
<animateTransform attributeName="transform" attributeType="XML" type="rotate" values="0 200 400;2 200 400;0 200 400" calcMode="spline" keySplines=".5 0 .5 1;.5 0 .5 1" begin="0" dur="2s" repeatCount="indefinite"/>
</g>
<defs>
<filter id="filter0_d_2618_220" x="11" y="92.2807" width="352.676" height="306.247" filterUnits="userSpaceOnUse" color-interpolation-filters="sRGB">
<feFlood flood-opacity="0" result="BackgroundImageFix"/>
<feColorMatrix in="SourceAlpha" type="matrix" values="0 0 0 0 0 0 0 0 0 0 0 0 0 0 0 0 0 0 127 0" result="hardAlpha"/>
<feOffset dx="4" dy="4"/>
<feGaussianBlur stdDeviation="12"/>
<feComposite in2="hardAlpha" operator="out"/>
<feColorMatrix type="matrix" values="0 0 0 0 0.203922 0 0 0 0 0.172549 0 0 0 0 0.156863 0 0 0 0.25 0"/>
<feBlend mode="normal" in2="BackgroundImageFix" result="effect1_dropShadow_2618_220"/>
<feBlend mode="normal" in="SourceGraphic" in2="effect1_dropShadow_2618_220" result="shape"/>
</filter>
<linearGradient id="paint0_linear_2618_220" x1="163.244" y1="348.754" x2="284.694" y2="112.281" gradientUnits="userSpaceOnUse">
<stop offset="0.0199994" stop-color="#47F3C2"/>
<stop offset="0.376516" stop-color="#3573F5"/>
<stop offset="0.735408" stop-color="#B351EB"/>
</linearGradient>
<clipPath id="clip0_2618_220">
<rect width="960" height="320" rx="24" fill="white"/>
</clipPath>
</defs>
</svg>
