<svg fill="none" height="64" viewBox="0 0 64 64" width="64" xmlns="http://www.w3.org/2000/svg" xmlns:xlink="http://www.w3.org/1999/xlink"><clipPath id="a"><path d="m0 0h64v64h-64z"/></clipPath><g clip-path="url(#a)"><path d="m0 0h64v64h-64z" fill="#ef4d1a"/><path d="m34.1702 38.3873-1.7181 4.493-6.6702-6.7395-10.8138 10.824-3.0319-3.0634 11.0159-10.926c-2.7287-3.0634-4.851-6.4331-6.4681-9.905h4.3458c1.3138 2.5528 2.9308 5.0035 4.9521 7.25 3.133-3.4718 5.3564-7.4542 6.8724-11.6408h-24.1543v-4.3909h15.1596v-4.2887h4.2447v4.2887h15.1595v4.3909h-6.367c-1.5159 5.1056-4.2447 10.007-7.984 14.1936l-.1011.1022zm12.1277-11.0281 9.7021 26.1408h-4.3457l-2.4256-6.5352h-10.2074l-2.4256 6.5352h-4.3457l9.7021-26.1408zm-5.6596 15.3169h6.9734l-3.5372-9.4965z" fill="#fff"/></g></svg>