<svg width="960" height="400" viewBox="0 0 960 400" fill="none" xmlns="http://www.w3.org/2000/svg">
<g clip-path="url(#clip0_2618_209)">
<rect width="960" height="320" rx="24" fill="#EF4D1A"/>
<path d="M428.5 248C191.682 201.446 20 101 101.041 -63.5461C198.041 -119.046 611.541 -100.546 923.541 -85.5461C1235.54 -70.5461 1064.13 88.4177 1025 178C987 265 662.5 294 428.5 248Z" fill="white"/>
<path d="M401.673 -15.335L432.712 -11.7444C427.126 22.5176 415.004 57.7263 400.191 80.3824C394.073 75.498 380.663 66.7176 373.159 62.8455C387.529 43.8811 397.657 13.8234 401.673 -15.335ZM405.294 81.9528L435.815 84.7445C433.067 111.833 425.524 140.101 415.996 158.308C409.737 154.082 395.718 147.513 388.121 144.722C397.746 129.289 403.577 104.855 405.294 81.9528ZM414.144 19.4737L496.238 10.2714L499.416 38.6233L405.897 49.1064L414.144 19.4737ZM435.033 29.9866L465.501 26.5713L478.782 145.057C480.348 159.022 479.181 167.722 471.075 173.772C463.157 179.588 452.509 182.067 438.544 183.632C436.279 174.888 430.082 161.657 424.714 153.903C432.99 153.19 441.876 152.194 444.838 151.862C447.589 151.553 448.576 150.8 448.267 148.049L435.033 29.9866ZM474.817 81.0153L501.279 68.6224C514.066 89.0416 525.425 115.834 530.286 134.356L501.827 148.044C498.047 129.615 486.758 101.529 474.817 81.0153ZM488.198 11.1726L492.218 10.722L496.778 9.35389L518.998 10.7195C518.71 29.1764 517.202 50.1268 515.734 63.7885L488.976 62.0746C489.341 50.0363 489.275 30.3336 488.625 14.9811L488.198 11.1726ZM354.937 -9.88189L384.944 -4.03314C375.458 33.6653 357.653 75.5098 337.342 102.639C333.738 95.3299 323.565 79.1167 317.633 72.069C333.766 51.6217 348.054 20.4548 354.937 -9.88189ZM342.278 53.0241L368.204 20.5528L368.227 20.7644L387.083 188.972L357.884 192.245L342.278 53.0241Z" fill="#EF4D1A"/>
<path d="M604.695 69.4066L609.116 68.911L613.638 67.6581L630.444 69.5043C632.642 140.69 617.415 184.547 579.761 213.013C575.539 206.959 567.057 197.838 561.178 193.648C593.518 172.678 607.148 129.559 605.252 74.3797L604.695 69.4066ZM629.781 40.2973L700.326 32.3895L703.031 56.5186L632.486 64.4263L629.781 40.2973ZM630.213 105.712L729.86 94.5423L732.709 119.961L633.062 131.131L630.213 105.712ZM665.522 86.2744L693.334 83.1567L703.162 170.832C704.628 183.909 702.793 190.829 694.59 195.852C686.367 200.69 675.193 202.502 660.642 204.133C658.506 196.726 653.399 186.108 648.931 179.522C657.261 178.961 668.496 177.702 671.443 177.371C674.575 177.02 675.597 176.16 675.288 173.397L665.522 86.2744ZM690.011 33.5458L697.195 32.7405L703.313 30.7492L722.625 41.6398C712.818 60.6436 698.862 84.2157 681.909 99.3579C678.098 95.309 669.966 89.3198 665.522 86.2744C676.766 73.4506 686.836 51.8062 690.651 39.2557L690.011 33.5458ZM551.28 75.3942L611.694 68.622L614.44 93.1194L554.026 99.8916L551.28 75.3942ZM559.059 139.799L572.342 118.54C596.365 133.193 629.646 153.894 644.275 169.599L629.358 194.585C615.198 178.081 583.39 155.536 559.059 139.799ZM559.059 139.799C564.272 113.104 568.203 71.6321 567.024 37.8203L593.938 36.6684C593.564 73.2653 589.083 116.477 583.75 147.103L559.059 139.799Z" fill="#EF4D1A"/>
<path d="M389 283.5C404.5 281 427.5 248.5 403.5 237.5L457 246.5C456 261 428.5 289 389 283.5Z" fill="white"/>
</g>
<g filter="url(#filter0_d_2618_209)">
<path d="M45.4451 234.168C40.3888 215.297 37.8607 205.862 39.6019 197.671C41.1334 190.465 44.9068 183.93 50.3811 179.001C56.6045 173.397 66.0396 170.869 84.9099 165.813L230.784 126.726C249.654 121.67 259.089 119.141 267.28 120.883C274.486 122.414 281.022 126.187 285.951 131.662C291.554 137.885 294.082 147.32 299.139 166.191L321.231 248.641C326.287 267.511 328.816 276.946 327.074 285.138C325.543 292.343 321.769 298.879 316.295 303.808C310.072 309.412 300.637 311.94 281.766 316.996L135.893 356.083C117.022 361.139 107.587 363.667 99.3958 361.926C92.1903 360.394 85.6547 356.621 80.7256 351.147C75.122 344.923 72.5939 335.488 67.5376 316.618L45.4451 234.168Z" fill="url(#paint0_linear_2618_209)"/>
<path d="M54.6114 228.737C50.7449 214.307 48.8116 207.092 50.1431 200.828C51.3143 195.318 54.1998 190.32 58.386 186.551C63.1451 182.266 70.3602 180.333 84.7904 176.466L236.214 135.892C250.644 132.026 257.859 130.092 264.123 131.424C269.633 132.595 274.631 135.481 278.4 139.667C282.685 144.426 284.619 151.641 288.485 166.071L312.065 254.071C315.931 268.501 317.864 275.716 316.533 281.98C315.362 287.491 312.476 292.488 308.29 296.258C303.531 300.543 296.316 302.476 281.886 306.343L130.462 346.916C116.032 350.783 108.817 352.716 102.553 351.385C97.043 350.214 92.0452 347.328 88.2759 343.142C83.9908 338.383 82.0575 331.168 78.191 316.737L54.6114 228.737Z" fill="#11141A"/>
<path d="M191.622 260.427C192.354 263.16 192.682 265.973 192.587 268.705C192.491 271.436 191.974 274.034 191.066 276.348C190.157 278.663 188.875 280.65 187.291 282.195C185.708 283.74 183.855 284.814 181.838 285.354C179.821 285.895 177.679 285.891 175.535 285.345C173.391 284.798 171.287 283.719 169.343 282.169C167.399 280.619 165.653 278.628 164.204 276.31C162.756 273.992 161.633 271.392 160.901 268.659L166.741 267.094C167.195 268.788 167.891 270.399 168.788 271.836C169.686 273.273 170.769 274.507 171.974 275.468C173.178 276.429 174.483 277.097 175.811 277.436C177.14 277.775 178.467 277.777 179.718 277.442C180.968 277.107 182.117 276.441 183.098 275.484C184.079 274.526 184.874 273.295 185.437 271.86C186 270.425 186.321 268.816 186.38 267.123C186.439 265.429 186.236 263.686 185.782 261.992L191.622 260.427Z" fill="white"/>
<path d="M216.397 253.789C217.129 256.522 217.457 259.335 217.361 262.066C217.266 264.798 216.749 267.395 215.841 269.71C214.932 272.025 213.649 274.011 212.066 275.557C210.483 277.102 208.63 278.175 206.612 278.716C204.595 279.256 202.454 279.253 200.31 278.707C198.166 278.16 196.062 277.081 194.118 275.531C192.174 273.98 190.427 271.989 188.979 269.671C187.531 267.353 186.408 264.754 185.676 262.021L191.516 260.456C191.97 262.15 192.665 263.761 193.563 265.198C194.461 266.634 195.543 267.868 196.748 268.829C197.953 269.79 199.257 270.459 200.586 270.798C201.915 271.137 203.242 271.138 204.492 270.803C205.743 270.468 206.891 269.803 207.873 268.845C208.854 267.888 209.649 266.656 210.212 265.222C210.775 263.787 211.095 262.177 211.154 260.484C211.214 258.791 211.01 257.048 210.557 255.354L216.397 253.789Z" fill="white"/>
<path fill-rule="evenodd" clip-rule="evenodd" d="M99.7165 279.743C99.7542 281.435 99.9932 283.149 100.451 284.857C103.53 296.35 115.344 303.171 126.838 300.091C138.331 297.012 145.152 285.198 142.072 273.704C141.615 271.997 140.965 270.392 140.151 268.908L99.7165 279.743Z" fill="white"/>
<path fill-rule="evenodd" clip-rule="evenodd" d="M234.491 243.63C234.529 245.322 234.768 247.036 235.225 248.744C238.305 260.237 250.119 267.058 261.612 263.979C273.106 260.899 279.927 249.085 276.847 237.591C276.389 235.884 275.739 234.28 274.926 232.796L234.491 243.63Z" fill="white"/>
<animateTransform attributeName="transform" attributeType="XML" type="rotate" values="0 200 400;2 200 400;0 200 400" calcMode="spline" keySplines=".5 0 .5 1;.5 0 .5 1" begin="0" dur="2s" repeatCount="indefinite"/>
</g>
<defs>
<filter id="filter0_d_2618_209" x="11" y="92.2807" width="352.676" height="306.247" filterUnits="userSpaceOnUse" color-interpolation-filters="sRGB">
<feFlood flood-opacity="0" result="BackgroundImageFix"/>
<feColorMatrix in="SourceAlpha" type="matrix" values="0 0 0 0 0 0 0 0 0 0 0 0 0 0 0 0 0 0 127 0" result="hardAlpha"/>
<feOffset dx="4" dy="4"/>
<feGaussianBlur stdDeviation="12"/>
<feComposite in2="hardAlpha" operator="out"/>
<feColorMatrix type="matrix" values="0 0 0 0 0.203922 0 0 0 0 0.172549 0 0 0 0 0.156863 0 0 0 0.25 0"/>
<feBlend mode="normal" in2="BackgroundImageFix" result="effect1_dropShadow_2618_209"/>
<feBlend mode="normal" in="SourceGraphic" in2="effect1_dropShadow_2618_209" result="shape"/>
</filter>
<linearGradient id="paint0_linear_2618_209" x1="163.244" y1="348.754" x2="284.694" y2="112.281" gradientUnits="userSpaceOnUse">
<stop offset="0.0199994" stop-color="#47F3C2"/>
<stop offset="0.376516" stop-color="#3573F5"/>
<stop offset="0.735408" stop-color="#B351EB"/>
</linearGradient>
<clipPath id="clip0_2618_209">
<rect width="960" height="320" rx="24" fill="white"/>
</clipPath>
</defs>
</svg>
