<svg width="960" height="400" viewBox="0 0 960 400" fill="none" xmlns="http://www.w3.org/2000/svg">
<g clip-path="url(#clip0_2618_197)">
<rect width="960" height="320" rx="24" fill="#EF4D1A"/>
<path d="M428.5 248C191.682 201.446 20 101 101.041 -63.5461C198.041 -119.046 611.541 -100.546 923.541 -85.5461C1235.54 -70.5461 1064.13 88.4177 1025 178C987 265 662.5 294 428.5 248Z" fill="white"/>
<path d="M812.674 87.4251C820.7 88.9173 829.038 90.0134 837.55 90.7022C854.714 92.0911 872.421 91.9789 887.472 89.9663L885.767 111.037C871.085 111.956 853.134 111.627 836.098 110.389C827.725 109.712 819.375 108.755 811.187 107.531L812.674 87.4251ZM870.053 69.1736C869.42 71.791 868.847 75.3966 868.459 78.4552C867.83 82.7585 866.794 92.0854 865.891 103.249C863.621 131.297 864.555 147.525 863.539 160.084C862.207 176.551 852.987 186.339 832.195 184.656C812.519 183.064 800.219 173.641 801.495 157.873C802.76 142.244 816.411 133.236 835.947 134.817C863.716 137.064 879.762 152.267 889.438 162.882L876.561 179.679C860.952 162.544 847.743 152.205 832.952 151.008C826.393 150.477 821.864 152.639 821.503 157.104C821.107 161.988 825.856 164.058 831.856 164.544C838.554 165.086 841.499 161.672 842.12 153.997C842.877 144.648 842.836 122.592 844.541 101.521C845.444 90.3577 846.084 80.7179 846.249 76.9389C846.418 74.8458 846.233 70.1957 845.912 67.2201L870.053 69.1736ZM802.227 65.5111C800.723 68.4794 798.069 76.9731 797.308 79.4397C795.046 86.5605 787.531 118.679 786.481 131.657C786.447 132.075 786.266 134.308 786.361 134.877C788.363 130.966 790.391 128.462 792.544 124.422L802.065 133.479C796.862 145.7 791.535 159.455 789.206 167.413C788.629 169.333 787.951 172.508 787.838 173.904C787.714 175.439 787.51 177.95 787.469 180.194L768.239 180.043C766.076 170.317 764.606 153.764 766.142 134.786C767.87 113.436 773.9 87.5181 776.271 77.316C777.167 73.1749 778.524 66.8236 779.081 61.6718L802.227 65.5111Z" fill="#EF4D1A"/>
<path d="M686.722 52.2318C684.596 57.678 683.352 62.6339 681.689 67.5558C678.414 78.5274 673.559 95.1299 668.741 107.803C680.021 103.799 690.087 102.647 701.39 103.562C724.135 105.403 739.329 118.992 737.804 137.831C735.173 170.344 703.665 179.593 657.324 170.787L653.096 148.393C682.401 155.961 713.176 155.783 714.734 136.526C715.31 129.409 709.411 122.471 697.27 121.488C681.502 120.212 667.492 124.978 658.842 134.672C657.3 136.373 656.187 137.968 654.739 140.239L635.349 131.647C647.301 112.388 657.965 79.5414 660.988 64.757C662.367 58.1266 662.811 54.3703 662.939 49.3241L686.722 52.2318ZM633.837 63.5432C643.609 66.0194 654.962 68.0617 663.892 68.7844C681.614 70.2185 707.879 70.2369 731.717 67.2499L730.51 87.378C713.69 88.6857 683.254 89.8748 662.462 88.1923C651.159 87.2777 640.588 86.0008 632.143 84.4748L633.837 63.5432Z" fill="#EF4D1A"/>
<path d="M542.511 53.4844C560.611 57.1963 588.297 58.7344 604.061 58.3245L602.3 80.0934C583.895 80.1491 559.464 78.3126 540.9 75.125L542.511 53.4844ZM551.938 115.768C550.6 120.154 549.933 123.19 549.639 126.818C549.143 132.958 554.811 135.805 566.254 136.731C578.673 137.736 588.811 137.432 601.724 135.808L600.291 158.728C590.945 159.657 579.842 159.742 563.376 158.409C538.956 156.433 527.55 146.38 528.758 131.449C529.243 125.449 530.555 119.656 532.817 112.535L551.938 115.768ZM524.64 43.4704C523.125 46.5783 520.343 54.9211 519.581 57.3877C517.459 64.5198 509.902 93.6853 508.852 106.663C508.818 107.082 508.638 109.314 508.732 109.884C511.002 106.135 512.902 103.479 515.044 99.5792L524.575 108.497C519.362 120.857 513.794 135.857 511.626 143.547C511.038 145.606 510.349 148.921 510.247 150.177C510.123 151.712 509.92 154.224 509.878 156.468L490.241 156.143C488.206 146.568 486.838 128.759 488.374 109.781C490.102 88.4311 496.034 65.4548 498.265 55.2414C499.162 51.1003 500.647 44.8998 501.216 39.6085L524.64 43.4704Z" fill="#EF4D1A"/>
<path d="M424.377 39.7113C422.684 41.5407 421.097 43.8001 419.392 45.769C411.312 55.3685 402.021 69.5053 394.375 80.6849C398.802 79.7791 403.313 79.5823 407.778 79.9436C418.941 80.8469 424.377 88.3097 424.104 100.367C423.976 105.413 422.632 116.822 423.04 122.192C423.226 126.842 426.439 128.788 430.207 129.093C440.394 129.917 448.059 116.772 453.758 98.4123L470.97 114.834C461.704 139.086 446.869 154.038 424.682 152.243C408.913 150.967 401.146 141.068 401.352 129.848C401.37 122.686 402.318 110.964 402.272 106.325C402.192 102.105 400.163 99.4128 395.837 99.0628C387.325 98.374 380.194 106.646 374.524 117.705C370.52 125.527 365.114 140.259 362.26 147.753L338.914 137.718C351.487 110.784 383.573 56.214 392.042 43.5558C394.172 39.7954 397.671 34.7411 401.155 28.1406L424.377 39.7113Z" fill="#EF4D1A"/>
<path d="M230.947 24.34C241.322 26.3033 254.394 27.9229 269.465 29.1424C283.419 30.2716 300.511 30.8119 311.626 30.5876L309.796 53.1937C299.821 53.2292 281.333 52.576 267.798 51.4807C252.866 50.2725 240.643 48.5811 229.129 46.8066L230.947 24.34ZM241.245 86.2724C239.745 90.9266 238.44 94.8943 238.079 99.3597C237.447 107.174 244.218 113.762 263.056 115.286C281.615 116.788 299.507 116.129 313.185 113.724L311.383 137.737C297.749 139.583 281.427 139.948 262.03 138.379C228.121 135.635 213.139 122.905 214.765 102.811C215.454 94.2983 217.832 87.4679 219.216 82.5234L241.245 86.2724Z" fill="#EF4D1A"/>
<path d="M389 283.5C404.5 281 427.5 248.5 403.5 237.5L457 246.5C456 261 428.5 289 389 283.5Z" fill="white"/>
</g>
<g filter="url(#filter0_d_2618_197)">
<path d="M45.4451 234.168C40.3888 215.297 37.8607 205.862 39.6019 197.671C41.1334 190.465 44.9068 183.93 50.3811 179.001C56.6045 173.397 66.0396 170.869 84.9099 165.813L230.784 126.726C249.654 121.67 259.089 119.141 267.28 120.883C274.486 122.414 281.022 126.187 285.951 131.662C291.554 137.885 294.082 147.32 299.139 166.191L321.231 248.641C326.287 267.511 328.816 276.946 327.074 285.138C325.543 292.343 321.769 298.879 316.295 303.808C310.072 309.412 300.637 311.94 281.766 316.996L135.893 356.083C117.022 361.139 107.587 363.667 99.3958 361.926C92.1903 360.394 85.6547 356.621 80.7256 351.147C75.122 344.923 72.5939 335.488 67.5376 316.618L45.4451 234.168Z" fill="url(#paint0_linear_2618_197)"/>
<path d="M54.6114 228.737C50.7449 214.307 48.8116 207.092 50.1431 200.828C51.3143 195.318 54.1998 190.32 58.386 186.551C63.1451 182.266 70.3602 180.333 84.7904 176.466L236.214 135.892C250.644 132.026 257.859 130.092 264.123 131.424C269.633 132.595 274.631 135.481 278.4 139.667C282.685 144.426 284.619 151.641 288.485 166.071L312.065 254.071C315.931 268.501 317.864 275.716 316.533 281.98C315.362 287.49 312.476 292.488 308.29 296.258C303.531 300.543 296.316 302.476 281.886 306.343L130.462 346.916C116.032 350.783 108.817 352.716 102.553 351.385C97.043 350.213 92.0452 347.328 88.2759 343.142C83.9908 338.383 82.0575 331.168 78.191 316.737L54.6114 228.737Z" fill="#11141A"/>
<path d="M100.451 284.857C99.7183 282.124 99.5315 279.273 99.9008 276.468C100.27 273.663 101.188 270.958 102.603 268.508C104.018 266.058 105.901 263.91 108.146 262.188C110.39 260.465 112.952 259.202 115.685 258.47C118.418 257.737 121.268 257.551 124.074 257.92C126.879 258.289 129.584 259.207 132.034 260.622C134.484 262.037 136.632 263.92 138.354 266.165C140.077 268.409 141.34 270.971 142.072 273.704L134.16 275.824C133.706 274.13 132.923 272.543 131.855 271.151C130.788 269.76 129.457 268.593 127.938 267.716C126.42 266.839 124.743 266.27 123.004 266.041C121.266 265.812 119.499 265.928 117.805 266.382C116.111 266.836 114.524 267.619 113.132 268.686C111.741 269.754 110.574 271.085 109.697 272.604C108.82 274.122 108.251 275.799 108.022 277.537C107.793 279.276 107.909 281.043 108.363 282.737L100.451 284.857Z" fill="white"/>
<path d="M235.225 248.744C234.493 246.011 234.306 243.161 234.675 240.355C235.045 237.55 235.963 234.845 237.378 232.395C238.792 229.945 240.676 227.797 242.92 226.075C245.165 224.353 247.727 223.089 250.46 222.357C253.193 221.625 256.043 221.438 258.848 221.807C261.653 222.176 264.358 223.095 266.809 224.509C269.259 225.924 271.406 227.807 273.129 230.052C274.851 232.297 276.115 234.859 276.847 237.591L268.935 239.712C268.481 238.018 267.698 236.43 266.63 235.039C265.563 233.647 264.232 232.48 262.713 231.603C261.194 230.726 259.518 230.157 257.779 229.928C256.04 229.699 254.274 229.815 252.58 230.269C250.886 230.723 249.298 231.506 247.907 232.574C246.516 233.641 245.348 234.972 244.472 236.491C243.595 238.01 243.026 239.686 242.797 241.425C242.568 243.163 242.684 244.93 243.138 246.624L235.225 248.744Z" fill="white"/>
<path d="M164.19 267.778C165.062 271.031 166.55 274.085 168.569 276.766C170.588 279.447 173.098 281.701 175.957 283.401C178.816 285.101 181.967 286.212 185.23 286.672C188.494 287.132 191.805 286.932 194.977 286.082C198.148 285.232 201.116 283.75 203.712 281.72C206.309 279.69 208.482 277.152 210.108 274.25C211.734 271.349 212.78 268.141 213.189 264.81C213.597 261.479 213.358 258.09 212.486 254.837L188.338 261.307L164.19 267.778Z" fill="white"/>
<animateTransform attributeName="transform" attributeType="XML" type="rotate" values="0 200 400;2 200 400;0 200 400" calcMode="spline" keySplines=".5 0 .5 1;.5 0 .5 1" begin="0" dur="2s" repeatCount="indefinite"/>
</g>
<defs>
<filter id="filter0_d_2618_197" x="11" y="92.2808" width="352.676" height="306.247" filterUnits="userSpaceOnUse" color-interpolation-filters="sRGB">
<feFlood flood-opacity="0" result="BackgroundImageFix"/>
<feColorMatrix in="SourceAlpha" type="matrix" values="0 0 0 0 0 0 0 0 0 0 0 0 0 0 0 0 0 0 127 0" result="hardAlpha"/>
<feOffset dx="4" dy="4"/>
<feGaussianBlur stdDeviation="12"/>
<feComposite in2="hardAlpha" operator="out"/>
<feColorMatrix type="matrix" values="0 0 0 0 0.203922 0 0 0 0 0.172549 0 0 0 0 0.156863 0 0 0 0.25 0"/>
<feBlend mode="normal" in2="BackgroundImageFix" result="effect1_dropShadow_2618_197"/>
<feBlend mode="normal" in="SourceGraphic" in2="effect1_dropShadow_2618_197" result="shape"/>
</filter>
<linearGradient id="paint0_linear_2618_197" x1="163.244" y1="348.754" x2="284.694" y2="112.281" gradientUnits="userSpaceOnUse">
<stop offset="0.0199994" stop-color="#47F3C2"/>
<stop offset="0.376516" stop-color="#3573F5"/>
<stop offset="0.735408" stop-color="#B351EB"/>
</linearGradient>
<clipPath id="clip0_2618_197">
<rect width="960" height="320" rx="24" fill="white"/>
</clipPath>
</defs>
</svg>
