<svg fill="none" height="160" viewBox="0 0 460 160" width="460" xmlns="http://www.w3.org/2000/svg"><g fill="#ef4d1a"><path d="m65.7845 121.175c-4.5176-4.13-5.8364-12.807-3.9543-19.093 3.2636 3.963 7.7856 5.219 12.4694 5.927 7.2309 1.094 14.3322.685 21.0493-2.62.7684-.378 1.4786-.882 2.3182-1.391.6303 1.828.7943 3.674.5742 5.553-.5353 4.576-2.8125 8.111-6.4344 10.79-1.4483 1.072-2.9808 2.03-4.4766 3.041-4.5954 3.105-5.8387 6.747-4.1119 12.045.041.129.0777.258.1705.573-2.3462-1.05-4.0601-2.579-5.3659-4.589-1.3793-2.122-2.0354-4.469-2.07-7.008-.0172-1.236-.0172-2.483-.1834-3.701-.4058-2.97-1.8002-4.3-4.427-4.377-2.696-.078-4.8285 1.588-5.394 4.213-.0432.201-.1058.4-.1684.634z"/><path d="m40 101.034s13.3775-6.5163 26.7924-6.5163l10.1144-31.3022c.3787-1.5138 1.4843-2.5426 2.7325-2.5426s2.3539 1.0288 2.7326 2.5426l10.1143 31.3022c15.8878 0 26.7928 6.5163 26.7928 6.5163s-22.7232-61.901-22.7676-62.0252c-.6522-1.8301-1.7531-3.0088-3.2374-3.0088h-27.267c-1.4843 0-2.5408 1.1787-3.2374 3.0088-.0491.1219-22.7696 62.0252-22.7696 62.0252z"/><path d="m181.043 81.1227c0 5.4852-6.823 8.7611-16.27 8.7611-6.149 0-8.323-1.5237-8.323-4.7234 0-3.3521 2.699-4.9519 8.847-4.9519 5.549 0 10.272.0761 15.746.7618zm.075-6.7804c-3.374-.7618-8.473-1.2189-14.546-1.2189-17.695 0-26.017 4.1901-26.017 13.9416 0 10.1325 5.698 14.018 18.894 14.018 11.172 0 18.744-2.8189 21.519-9.7517h.449c-.075 1.6761-.15 3.3521-.15 4.6472 0 3.5807.6 3.8854 3.524 3.8854h13.796c-.75-2.1331-1.2-8.1517-1.2-13.3322 0-5.5614.225-9.7515.225-15.3891 0-11.5038-6.897-18.8175-28.491-18.8175-9.297 0-19.644 1.5999-27.516 3.9616.749 3.1235 1.799 9.4468 2.324 13.5607 6.823-3.1997 16.495-4.571 23.993-4.571 10.346 0 13.196 2.3617 13.196 7.1613z"/><path d="m218.971 84.3223c-1.874.2285-4.424.2285-7.048.2285-2.774 0-5.323-.0761-7.048-.3047 0 .6095-.075 1.2951-.075 1.9046 0 9.523 6.223 15.0843 28.117 15.0843 20.618 0 27.291-5.4851 27.291-15.1605 0-9.1421-4.423-13.6368-23.992-14.6272-15.221-.6857-16.57-2.3618-16.57-4.2664 0-2.2093 1.949-3.3521 12.146-3.3521 10.572 0 13.421 1.4475 13.421 4.4949v.6856c1.499-.0762 4.199-.1523 6.973-.1523 2.624 0 5.473.0761 7.123.2285 0-.6857.075-1.2951.075-1.8284 0-11.1991-9.298-14.8559-27.292-14.8559-20.244 0-27.067 4.952-27.067 14.6273 0 8.685 5.474 14.0941 24.893 14.9321 14.32.4571 15.895 2.057 15.895 4.2663 0 2.3617-2.325 3.4283-12.371 3.4283-11.547 0-14.471-1.5999-14.471-4.8758z"/><path d="m284.955 44.1733c-5.473 5.1044-15.295 10.2087-20.768 11.58.075 2.8188.075 7.9993.075 10.8181l5.023.0762c-.075 5.4091-.15 11.9609-.15 16.3034 0 10.1324 5.323 17.751 21.893 17.751 6.973 0 11.622-.762 17.395-1.9809-.6-3.7331-1.275-9.4469-1.5-13.7893-3.449 1.1427-7.797 1.7522-12.596 1.7522-6.673 0-9.372-1.8284-9.372-7.0851 0-4.571 0-8.8374.075-12.7989 8.548.0762 17.095.2285 22.118.3809-.075-3.9616.075-9.6754.3-13.4846-7.273.1524-15.445.2286-22.193.2286.075-3.3521.15-6.5518.225-9.7516z"/><path d="m329.736 64.286c.075-3.9616.15-7.3136.225-10.5896h-15.071c.225 6.5519.225 13.2561.225 23.0838s-.075 16.6081-.225 23.0837h17.245c-.3-4.571-.375-12.2656-.375-18.8174 0-10.361 4.199-13.3322 13.721-13.3322 4.424 0 7.573.5333 10.347 1.5237.075-3.8854.825-11.4276 1.274-14.7797-2.849-.838-5.998-1.3713-9.822-1.3713-8.172-.0762-14.17 3.2759-16.944 11.2752z"/><path d="m404.808 76.4755c0 8.3041-5.998 12.1895-15.445 12.1895-9.372 0-15.37-3.6569-15.37-12.1895s6.073-11.7323 15.37-11.7323c9.372 0 15.445 3.4283 15.445 11.7323zm15.67-.3809c0-16.5319-12.896-23.9217-31.115-23.9217-18.294 0-30.741 7.3898-30.741 23.9217 0 16.4558 11.622 25.2934 30.666 25.2934 19.194 0 31.19-8.8376 31.19-25.2934z"/></g></svg>