<svg enable-background="new 0 0 460 160" viewBox="0 0 460 160" xmlns="http://www.w3.org/2000/svg"><path d="m65.8 121.2c-4.5-4.1-5.8-12.8-4-19.1 3.3 4 7.8 5.2 12.5 5.9 7.2 1.1 14.3.7 21-2.6.8-.4 1.5-.9 2.3-1.4.6 1.8.8 3.7.6 5.6-.5 4.6-2.8 8.1-6.4 10.8-1.4 1.1-3 2-4.5 3-4.6 3.1-5.8 6.7-4.1 12 0 .1.1.3.2.6-2.3-1.1-4.1-2.6-5.4-4.6-1.4-2.1-2-4.5-2.1-7 0-1.2 0-2.5-.2-3.7-.4-3-1.8-4.3-4.4-4.4-2.7-.1-4.8 1.6-5.4 4.2 0 .2-.1.4-.1.7z" fill="#ffcc21"/><g fill="#ef4d1a"><path d="m40 101s13.4-6.5 26.8-6.5l10.1-31.3c.4-1.5 1.5-2.5 2.7-2.5s2.4 1 2.7 2.5l10.1 31.3c15.9 0 26.8 6.5 26.8 6.5s-22.6-61.9-22.7-62c-.7-1.8-1.8-3-3.2-3h-27.3c-1.5 0-2.5 1.2-3.2 3-.1.1-22.8 62-22.8 62z"/><path d="m181 81.1c0 5.5-6.8 8.8-16.3 8.8-6.1 0-8.3-1.5-8.3-4.7 0-3.4 2.7-5 8.8-5 5.5 0 10.3.1 15.7.8v.1zm.1-6.8c-3.4-.8-8.5-1.2-14.5-1.2-17.7 0-26 4.2-26 13.9 0 10.1 5.7 14 18.9 14 11.2 0 18.7-2.8 21.5-9.8h.4c-.1 1.7-.1 3.4-.1 4.6 0 3.6.6 3.9 3.5 3.9h13.8c-.8-2.1-1.2-8.2-1.2-13.3 0-5.6.2-9.8.2-15.4 0-11.5-6.9-18.8-28.5-18.8-9.3 0-19.6 1.6-27.5 4 .7 3.1 1.8 9.4 2.3 13.6 6.8-3.2 16.5-4.6 24-4.6 10.3 0 13.2 2.4 13.2 7.2z"/><path d="m219 84.3c-1.9.2-4.4.2-7 .2-2.8 0-5.3-.1-7-.3 0 .6-.1 1.3-.1 1.9 0 9.5 6.2 15.1 28.1 15.1 20.6 0 27.3-5.5 27.3-15.2 0-9.1-4.4-13.6-24-14.6-15.2-.7-16.6-2.4-16.6-4.3 0-2.2 1.9-3.4 12.1-3.4 10.6 0 13.4 1.4 13.4 4.5v.8c1.5-.1 4.2-.2 7-.2 2.6 0 5.5.1 7.1.2 0-.7.1-1.3.1-1.8 0-11.2-9.3-14.9-27.3-14.9-20.2 0-27.1 5-27.1 14.6 0 8.7 5.5 14.1 24.9 14.9 14.3.5 15.9 2.1 15.9 4.3 0 2.4-2.3 3.4-12.4 3.4-11.5 0-14.5-1.6-14.5-4.9z"/><path d="m285 44.2c-5.5 5.1-15.3 10.2-20.8 11.6.1 2.8.1 8 .1 10.8l5 .1c-.1 5.4-.1 12-.1 16.3 0 10.1 5.3 17.8 21.9 17.8 7 0 11.6-.8 17.4-2-.6-3.7-1.3-9.4-1.5-13.8-3.4 1.1-7.8 1.8-12.6 1.8-6.7 0-9.4-1.8-9.4-7.1 0-4.6 0-8.8.1-12.8 8.5.1 17.1.2 22.1.4-.1-4 .1-9.7.3-13.5-7.3.2-15.4.2-22.2.2.1-3.4.1-6.6.2-9.8z"/><path d="m329.7 64.3c.1-4 .1-7.3.2-10.6h-15.1c.2 6.6.2 13.3.2 23.1s-.1 16.6-.2 23.1h17.2c-.3-4.6-.4-12.3-.4-18.8 0-10.4 4.2-13.3 13.7-13.3 4.4 0 7.6.5 10.3 1.5.1-3.9.8-11.4 1.3-14.8-2.8-.8-6-1.4-9.8-1.4-8.2-.1-14.2 3.3-16.9 11.3z"/><path d="m404.8 76.5c0 8.3-6 12.2-15.4 12.2s-15.4-3.7-15.4-12.2 6.1-11.7 15.4-11.7c9.3-.1 15.4 3.4 15.4 11.7zm15.7-.4c0-16.5-12.9-23.9-31.1-23.9-18.3 0-30.7 7.4-30.7 23.9s11.6 25.3 30.7 25.3 31.1-8.8 31.1-25.3z"/></g></svg>