<svg width="180" height="180" viewBox="0 0 180 180" fill="none" xmlns="http://www.w3.org/2000/svg">
<rect width="180" height="180" fill="#EF4D1A"/>
<path d="M93.2553 99.581L90.6782 106.32L80.6729 96.2113L64.4521 112.447L59.9043 107.852L76.4282 91.463C72.3351 86.868 69.1516 81.8134 66.7261 76.6056H73.2447C75.2154 80.4349 77.641 84.1109 80.6729 87.4806C85.3723 82.2729 88.7074 76.2993 90.9814 70.0194H54.75V63.4331H77.4894V57H83.8564V63.4331H106.596V70.0194H97.0452C94.7713 77.6778 90.6782 85.0299 85.0691 91.3099L84.9176 91.463L93.2553 99.581ZM111.447 83.0387L126 122.25H119.481L115.843 112.447H100.532L96.8936 122.25H90.375L104.928 83.0387H111.447ZM102.957 106.014H113.418L108.112 91.7694L102.957 106.014Z" fill="white"/>
</svg>
