<svg width="960" height="400" viewBox="0 0 960 400" fill="none" xmlns="http://www.w3.org/2000/svg">
<g clip-path="url(#clip0_2616_182)">
<rect width="960" height="320" rx="24" fill="#EF4D1A"/>
<path d="M428.5 248C191.682 201.446 20 101 101.041 -63.5461C198.041 -119.046 611.541 -100.546 923.541 -85.5461C1235.54 -70.5461 1064.13 88.4177 1025 178C987 265 662.5 294 428.5 248Z" fill="white"/>
<path d="M425.291 167.835L385.63 164.897L390.037 105.405L344.242 102.013L339.835 161.505L300.174 158.568L310.986 12.5975L350.647 15.5353L346.635 69.7119L392.429 73.1039L396.442 18.9273L436.103 21.865L425.291 167.835Z" fill="#EF4D1A"/>
<path d="M840.742 140.972L818.213 141.692L812.65 77.1566L842.175 76.2134L840.742 140.972ZM815.76 165.722C815.605 160.872 816.895 157.422 819.631 155.374C822.46 153.322 825.834 152.234 829.752 152.109C833.577 151.987 836.92 152.86 839.781 154.73C842.642 156.599 844.15 159.96 844.305 164.811C844.451 169.382 843.158 172.738 840.425 174.88C837.692 177.021 834.413 178.153 830.588 178.275C826.67 178.401 823.232 177.483 820.275 175.523C817.411 173.56 815.906 170.293 815.76 165.722Z" fill="#EF4D1A"/>
<path d="M801.385 127.382C801.633 135.125 800.925 142.198 799.262 148.601C797.596 154.91 794.877 160.413 791.105 165.109C787.333 169.806 782.407 173.465 776.328 176.087C770.342 178.706 763.058 180.153 754.475 180.427C746.08 180.695 738.765 179.715 732.53 177.486C726.389 175.254 721.24 171.917 717.083 167.474C713.019 163.028 709.907 157.712 707.749 151.524C705.68 145.24 704.521 138.18 704.27 130.344C703.94 119.99 705.378 110.933 708.585 103.173C711.789 95.3199 716.916 89.1797 723.965 84.7524C731.014 80.325 740.135 77.9325 751.329 77.5749C762.71 77.2113 772.014 79.0618 779.241 83.1265C786.558 87.0948 791.973 92.8982 795.485 100.537C799.088 108.079 801.055 117.027 801.385 127.382ZM732.68 129.577C732.871 135.547 733.69 140.704 735.136 145.046C736.672 149.293 738.97 152.534 742.03 154.771C745.089 157.008 748.998 158.05 753.756 157.898C758.7 157.74 762.58 156.449 765.398 154.025C768.308 151.597 770.348 148.217 771.517 143.884C772.683 139.458 773.171 134.26 772.98 128.289C772.691 119.241 770.97 112.152 767.818 107.023C764.666 101.895 759.405 99.4482 752.036 99.6836C747.185 99.8386 743.306 101.176 740.398 103.697C737.487 106.125 735.402 109.553 734.143 113.982C732.974 118.315 732.487 123.513 732.68 129.577Z" fill="#EF4D1A"/>
<path d="M630.804 182.977L627.612 83.0682L654.618 82.2054L657.113 160.286L695.593 159.056L696.29 180.885L630.804 182.977Z" fill="#EF4D1A"/>
<path d="M549.361 185.579L546.169 85.6702L573.175 84.8074L575.67 162.888L614.15 161.658L614.847 183.487L549.361 185.579Z" fill="#EF4D1A"/>
<path d="M531.894 186.137L472.564 188.033L469.372 88.1237L528.702 86.2282L529.395 107.917L497.071 108.95L497.572 124.622L527.517 123.665L528.21 145.354L498.265 146.311L498.869 165.201L531.192 164.168L531.894 186.137Z" fill="#EF4D1A"/>
<path d="M389 283.5C404.5 281 427.5 248.5 403.5 237.5L457 246.5C456 261 428.5 289 389 283.5Z" fill="white"/>
</g>
<g filter="url(#filter0_d_2616_182)">
<path d="M45.4451 234.168C40.3888 215.297 37.8607 205.862 39.6019 197.671C41.1334 190.465 44.9068 183.93 50.3811 179.001C56.6045 173.397 66.0396 170.869 84.9099 165.813L230.784 126.726C249.654 121.67 259.089 119.141 267.28 120.883C274.486 122.414 281.022 126.187 285.951 131.662C291.554 137.885 294.082 147.32 299.139 166.191L321.231 248.641C326.287 267.511 328.816 276.946 327.074 285.138C325.543 292.343 321.769 298.879 316.295 303.808C310.072 309.412 300.637 311.94 281.766 316.996L135.893 356.083C117.022 361.139 107.587 363.667 99.3958 361.926C92.1903 360.394 85.6547 356.621 80.7256 351.147C75.122 344.923 72.5939 335.488 67.5376 316.618L45.4451 234.168Z" fill="url(#paint0_linear_2616_182)"/>
<path d="M54.6114 228.737C50.7449 214.307 48.8116 207.092 50.1431 200.828C51.3143 195.318 54.1998 190.32 58.386 186.551C63.1451 182.266 70.3602 180.333 84.7904 176.466L236.214 135.892C250.644 132.026 257.859 130.092 264.123 131.424C269.633 132.595 274.631 135.481 278.4 139.667C282.685 144.426 284.619 151.641 288.485 166.071L312.065 254.071C315.931 268.501 317.864 275.716 316.533 281.98C315.362 287.49 312.476 292.488 308.29 296.258C303.531 300.543 296.316 302.476 281.886 306.343L130.462 346.916C116.032 350.783 108.817 352.716 102.553 351.385C97.043 350.213 92.0452 347.328 88.2759 343.142C83.9908 338.383 82.0575 331.168 78.191 316.737L54.6114 228.737Z" fill="#11141A"/>
<ellipse cx="121.262" cy="279.28" rx="21.5449" ry="21.5449" transform="rotate(-15 121.262 279.28)" fill="white"/>
<ellipse cx="256.036" cy="243.168" rx="21.5449" ry="21.5449" transform="rotate(-15 256.036 243.168)" fill="white"/>
<path d="M209.46 255.648C210.192 258.381 210.379 261.231 210.009 264.036C209.64 266.841 208.722 269.546 207.307 271.997C205.893 274.447 204.009 276.594 201.764 278.317C199.52 280.039 196.958 281.303 194.225 282.035C191.492 282.767 188.642 282.954 185.837 282.585C183.031 282.215 180.327 281.297 177.876 279.883C175.426 278.468 173.278 276.584 171.556 274.34C169.834 272.095 168.57 269.533 167.838 266.8L175.75 264.68C176.204 266.374 176.987 267.962 178.055 269.353C179.122 270.744 180.453 271.912 181.972 272.789C183.491 273.665 185.167 274.234 186.906 274.463C188.644 274.692 190.411 274.576 192.105 274.123C193.799 273.669 195.387 272.886 196.778 271.818C198.169 270.751 199.336 269.42 200.213 267.901C201.09 266.382 201.659 264.706 201.888 262.967C202.117 261.228 202.001 259.462 201.547 257.768L209.46 255.648Z" fill="white"/>
<animateTransform attributeName="transform" attributeType="XML" type="rotate" values="0 200 400;2 200 400;0 200 400" calcMode="spline" keySplines=".5 0 .5 1;.5 0 .5 1" begin="0" dur="2s" repeatCount="indefinite"/>
</g>
<defs>
<filter id="filter0_d_2616_182" x="11" y="92.2808" width="352.676" height="306.247" filterUnits="userSpaceOnUse" color-interpolation-filters="sRGB">
<feFlood flood-opacity="0" result="BackgroundImageFix"/>
<feColorMatrix in="SourceAlpha" type="matrix" values="0 0 0 0 0 0 0 0 0 0 0 0 0 0 0 0 0 0 127 0" result="hardAlpha"/>
<feOffset dx="4" dy="4"/>
<feGaussianBlur stdDeviation="12"/>
<feComposite in2="hardAlpha" operator="out"/>
<feColorMatrix type="matrix" values="0 0 0 0 0.203922 0 0 0 0 0.172549 0 0 0 0 0.156863 0 0 0 0.25 0"/>
<feBlend mode="normal" in2="BackgroundImageFix" result="effect1_dropShadow_2616_182"/>
<feBlend mode="normal" in="SourceGraphic" in2="effect1_dropShadow_2616_182" result="shape"/>
</filter>
<linearGradient id="paint0_linear_2616_182" x1="163.244" y1="348.754" x2="284.694" y2="112.281" gradientUnits="userSpaceOnUse">
<stop offset="0.0199994" stop-color="#47F3C2"/>
<stop offset="0.376516" stop-color="#3573F5"/>
<stop offset="0.735408" stop-color="#B351EB"/>
</linearGradient>
<clipPath id="clip0_2616_182">
<rect width="960" height="320" rx="24" fill="white"/>
</clipPath>
</defs>
</svg>
